<svg version="1" xmlns="http://www.w3.org/2000/svg" width="684" height="684" viewBox="0 0 513.000000 513.000000"><path d="M156.6 122.2c-.3 1.8-.6 13.2-.7 25.3l-.1 22 28.6.3 28.6.2v65.3c0 39.7-.4 67.7-1 71.7-1.4 8.7-5 15.8-10.9 21.3-8.2 7.7-12 9.2-23.6 9.2-9 0-10.5-.3-15.3-2.8-10.7-5.7-18.1-15.9-19-26.4l-.4-5.3H87.7l.6 8.7c2.1 30 21.6 58.6 49.3 72.3 23.7 11.8 53.3 12.2 77.1 1 21.9-10.2 39.4-29.3 46.9-51 5.4-15.6 5.4-14.6 5.4-118.6V119H157.2l-.6 3.2zM340 205.5V225h-39l.2 22.7.3 22.8 19.2.3 19.3.2.2 19.3.3 19.2 22.8.3 22.7.2v-39h39v-46h-39v-39h-46v19.5z"/></svg>