<?xml version="1.0" standalone="no"?>
<!DOCTYPE svg PUBLIC "-//W3C//DTD SVG 20010904//EN"
 "http://www.w3.org/TR/2001/REC-SVG-20010904/DTD/svg10.dtd">
<svg version="1.0" xmlns="http://www.w3.org/2000/svg"
 width="513.000000pt" height="513.000000pt" viewBox="0 0 513.000000 513.000000"
 preserveAspectRatio="xMidYMid meet">
<metadata>
Created by potrace 1.11, written by Peter Selinger 2001-2013
</metadata>
<g transform="translate(0.000000,513.000000) scale(0.100000,-0.100000)"
fill="#000000" stroke="none">
<path d="M1566 3908 c-3 -18 -6 -132 -7 -253 l-1 -220 286 -3 286 -2 0 -653
c0 -397 -4 -677 -10 -717 -14 -87 -50 -158 -109 -213 -82 -77 -120 -92 -236
-92 -90 0 -105 3 -153 28 -107 57 -181 159 -190 264 l-4 53 -276 0 -275 0 6
-87 c21 -300 216 -586 493 -723 237 -118 533 -122 771 -10 219 102 394 293
469 510 54 156 54 146 54 1186 l0 964 -549 0 -549 0 -6 -32z"/>
<path d="M3400 3075 l0 -195 -195 0 -195 0 2 -227 3 -228 192 -3 193 -2 2
-193 3 -192 228 -3 227 -2 0 195 0 195 195 0 195 0 0 230 0 230 -195 0 -195 0
0 195 0 195 -230 0 -230 0 0 -195z"/>
</g>
</svg>
