<svg xmlns="http://www.w3.org/2000/svg" width="100" height="100" viewBox="0 0 100 100"><circle fill-rule="evenodd" clip-rule="evenodd" fill="#243C75" cx="50" cy="50" r="50"/><g fill-rule="evenodd" clip-rule="evenodd"><path fill="#F6F7F9" d="M25.504 51.05c.001-6.265-.023-12.53.008-18.794.022-4.375 1.705-6.232 5.964-6.263 4.637-.033 9.293-.352 13.913.361 4.775.736 8.679 2.867 10.456 7.572 1.831 4.848.938 9.348-2.734 13.136-.83.856-1.527 1.311.009 2.338 4.896 3.274 6.242 8.006 4.976 13.587-1.338 5.891-5.514 8.915-11.038 10.029-6.609 1.334-13.357.432-20.042.631-2.014.061-1.489-1.444-1.495-2.507-.034-6.695-.017-13.393-.017-20.09zm9.178 8.643c0 5.694 0 5.694 5.727 5.689.432 0 .864.002 1.296-.001 4.88-.039 7.222-2.045 7.263-6.226.042-4.287-2.183-6.323-7.059-6.459-7.175-.201-7.227-.151-7.227 6.997zm0-19.534c-.001 5.064-.001 5.064 5.061 5.057.433 0 .865-.017 1.297.001 2.902.119 5.212-.864 5.904-3.88.602-2.62.504-5.239-2.354-6.747-1.914-1.01-8.062-.82-9.058.262-.615.667-.844 1.491-.842 2.387.003.974 0 1.947-.008 2.92z"/><path fill="#3B9AD2" d="M68.725 62.685c3.3-.043 5.788 2.377 5.812 5.651.023 3.179-2.599 5.799-5.775 5.771-3.074-.026-5.505-2.451-5.586-5.571-.09-3.349 2.243-5.809 5.549-5.851z"/></g></svg>