<svg xmlns="http://www.w3.org/2000/svg" width="150" height="150" viewBox="0 0 150 150"><path fill="#0F8040" d="M0 0h16.163v150H0z"/><path fill="#3D9D49" d="M15.409 0h17.828v150H15.409z"/><path fill="#69BA45" d="M32.475 0h12.51v150h-12.51z"/><path fill="#95BC5C" d="M44.111 0h10.144v150H44.111z"/><path fill="#32B8AC" d="M53.434 0h12.391v150H53.434z"/><path fill="#3C94D1" d="M65.078 0h9.837v150h-9.837z"/><path fill="#2960A9" d="M74.383 0h15.678v150H74.383z"/><path fill="#424F6F" d="M89.329 0h12.436v150H89.329z"/><path fill="#80181B" d="M100.913 0h10.629v150h-10.629z"/><path fill="#E92429" d="M110.653 0h12.593v150h-12.593z"/><path fill="#EF6924" d="M122.364 0h13.825v150h-13.825z"/><path fill="#ECB81E" d="M135.413 0H150v150h-14.587z"/><path fill="#FFF" d="M31.486 89.207c-7.88 0-14.291-6.421-14.291-14.311V50.678h-.705a2.354 2.354 0 1 1 0-4.709h3.062a2.356 2.356 0 0 1 2.355 2.354v26.573c0 5.294 4.296 9.599 9.58 9.599 5.292 0 9.599-4.305 9.599-9.599 0-5.292-4.308-9.6-9.599-9.6l-2.63-.016a2.355 2.355 0 0 1 .011-4.709h.013l2.618.013c7.877 0 14.297 6.421 14.297 14.312.001 7.89-6.42 14.311-14.31 14.311M77.742 83.957h-.468V80.23s.049-2.431-1.945-3.017c-1.71-.5-2.667 1.102-3.478 2.321-.708 1.062-1.38 1.913-2.36 2.737a8.68 8.68 0 0 1-6.37 2.007c-4.792-.419-8.348-4.659-7.932-9.451.008-.069.01-.138.01-.206V63.149a2.356 2.356 0 0 0-2.354-2.357h-2.851a2.357 2.357 0 0 0 0 4.711h.497v9.021c-.586 7.336 4.876 13.803 12.22 14.447a13.348 13.348 0 0 0 9.806-3.092l.046-.043v.479a2.356 2.356 0 0 0 2.355 2.356c.034 0 .065-.005.099-.005h2.725c1.3 0 2.354-1.056 2.354-2.356s-1.054-2.353-2.354-2.353M118.514 60.792c7.88 0 14.291 6.421 14.291 14.312v24.218h.705a2.354 2.354 0 1 1 0 4.708h-3.062a2.353 2.353 0 0 1-2.354-2.354V75.104c0-5.294-4.299-9.6-9.58-9.6-5.294 0-9.602 4.305-9.602 9.6 0 5.292 4.308 9.599 9.602 9.599l2.63.016a2.355 2.355 0 0 1-.012 4.709h-.012l-2.619-.013c-7.879 0-14.3-6.421-14.3-14.311-.001-7.891 6.42-14.312 14.313-14.312M72.258 66.043h.466v3.724s-.048 2.434 1.945 3.017c1.71.502 2.667-1.1 3.479-2.32.707-1.061 1.379-1.914 2.36-2.736a8.671 8.671 0 0 1 6.368-2.006c4.793.417 8.349 4.658 7.932 9.45-.008.069-.01.139-.01.206v11.474a2.355 2.355 0 0 0 2.354 2.356h2.851a2.355 2.355 0 1 0 0-4.71h-.496v-9.022c.586-7.336-4.876-13.805-12.223-14.449a13.364 13.364 0 0 0-9.804 3.095l-.046.039v-.476a2.356 2.356 0 0 0-2.354-2.356c-.034 0-.066.004-.099.004h-2.724a2.356 2.356 0 0 0 .001 4.71"/></svg>