<svg xmlns="http://www.w3.org/2000/svg" width="113.386" height="113.384" viewBox="0 0 113.386 113.384"><path d="M105.537 58.647c.438 4.033-.305 9.523-2.872 14.002-5.878 10.248-20.218 19.756-42.402 19.748-54.31-.002-55.242-35-54.357-39.444.288 21.741 28.081 32.795 52.978 31.687 22.801-1.017 43.169-12.562 37.75-28.658-2.678-7.282-18.523-14.192-23.755-1.196-1.442 3.678.152 4.653.152 4.653s-3.059.526-3.509-1.161c-.451-1.691.229-8.55-3.049-8.917-3.284-.368-24.132-.265-24.132-.265s-2.535-1.513-.422-2.166c2.113-.652 12.346-1.574 12.346-1.574s-2.214.012-2.545-.631c-.33-.643.229-1.426.833-1.943.697-.59 2.483-.906 2.483-.906s-1.865.201-1.993-.197c-.135-.4-.475-1.537.626-2.108 1.104-.567 2.799-.923 2.799-.923s-1.812.149-2.013-.105c-.133-.17-.452-1.723 1.301-2.587 20.033-3.528 47.637.659 49.781 22.691"/><path d="M77.227 45.698c.082.567 2.183 1.394 1.958 1.954-1.419 3.554-4.437 3.913-6.39 6.581"/><path d="M8.668 55.019c-.472-4.026.229-9.526 2.762-14.024C17.228 30.7 31.492 21.083 53.676 20.917c54.305-.426 55.515 34.566 54.666 39.016-.463-21.737-28.341-32.575-53.225-31.271-22.793 1.196-43.072 12.9-37.523 28.956 2.732 7.258 18.634 14.046 23.764 1.007 1.413-3.688-.19-4.652-.19-4.652s3.057-.549 3.518 1.134c.465 1.688-.159 8.551 3.119 8.894 3.287.339 24.134.074 24.134.074s2.545 1.492.436 2.161c-2.107.669-12.328 1.671-12.328 1.671s2.211-.027 2.547.611c.337.643-.218 1.429-.817 1.951-.691.595-2.476.925-2.476.925s1.862-.214 1.993.182c.137.397.487 1.532-.606 2.113-1.104.575-2.793.946-2.793.946s1.809-.166 2.01.087c.14.171.469 1.72-1.278 2.601-20.007 3.681-47.643-.287-49.959-22.304"/><path d="M37.075 67.745c-.083-.563-2.189-1.374-1.966-1.935 1.388-3.567 4.402-3.948 6.334-6.633"/></svg>