<svg xmlns="http://www.w3.org/2000/svg" width="140" height="140" viewBox="79.699 1.964 140 140"><path fill="#DB0026" d="M183.79 78.506c-1.124-1.497-1.319-4.145-3.6-4.38-2.213-.599-4.415-1.235-6.649-1.754l-13.123 2.137-1.538 7.072 21.22 2.769 5.535 3.69 14.453 1.537 6.766-2.46c-7.012-2.263-14.191-4.065-21.006-6.884-.838-.386-1.42-1.091-2.058-1.727z"/><path fill="#004526" d="M209.57 86.81c-.475-.617-1.239-.864-1.768-1.101-.515-.243-.442-.748-.873-.893-.443-.142-1.217.759-1.816.571-.601-.196-.557-1.318-1.06-1.484-.512-.161-1.406.68-1.871.53-.471-.137-.562-1.316-1.016-1.465-.448-.137-1.402.7-1.867.558-.466-.157-.496-1.306-1.013-1.476-.516-.158-1.424.699-1.874.545-.464-.143-.51-1.29-1.004-1.456-.5-.158-1.418.683-1.88.53-.475-.152-.604-1.33-1.038-1.471-.441-.136-1.306.56-2.007.518-4.872-.453-6.737-3.519-7.067-2.613-.326.888 1.015 3.05 2.7 3.78 1.343.586 15.86 4.602 16.24 4.782.37.183 1.288.593.962 1.12-.507.679-1.922.007-2.283-.29-.366-.304-.282-.414-.624-.507-.78-.185-1.21 1.234-2.032 1.043-.75-.167-.696-1.672-1.458-1.847-.838-.204-1.218 1.223-2.017 1.036-.663-.149-.754-1.682-1.463-1.854-.819-.196-1.189 1.234-2.038 1.036-.733-.172-.692-1.666-1.456-1.85-.765-.181-1.298 1.204-2.02 1.04-.725-.167-.83-1.695-1.473-1.847-.659-.145-1.176.63-2.06.746 0 0-2.54.687-6.555-3.507-4.02-4.185-5.672-4.999-7.96-3.293-3.739 2.784-6.06.943-6.735.116-.812-.948.038-1.821.038-1.821s1.187 1.833 2.682 1.866c2.407.072 4.223-3.213 8.35-3.272 5.226-.188 6.591 1.67 8.018 1.816 1.325.13 1.766-.083 2.682-.614h-.006c.741-.264 1.386 1.166 2.163.877.82-.31.22-1.752 1.104-2.084.826-.296 1.365 1.155 2.157.861.83-.305.3-1.787 1.1-2.077.821-.296 1.302 1.168 2.156.855.857-.305.303-1.772 1.083-2.068.805-.295 1.387 1.148 2.178.867.748-.267.32-1.803 1.1-2.082.81-.292 1.332 1.155 2.194.839.71-.247.318-1.785 1.053-2.063.734-.275 1.417 1.152 2.18.864.718-.264.299-1.791 1.062-2.077.808-.291 1.432 1.133 2.195.864.756-.271.183-1.503 1.167-1.992 0 0 1.365-.45 1.28-1.45-.011-.17-.294-2.31-2.54-2.765-2.162-.434-19.234 4.288-19.455 4.016-1.57-3.104-3.584-2.242-3.89-2.172-.314.079-2.22.89-4.33.079-4.147-1.876-7.456 2.896-9.727 2.267-2.09-.587-3.69-.249-4.566.05-.802.278-2.104 1.324-4.862.374-21.316-7.277-37.975-.916-37.975-.916-9.392 3.139-10.594 0-10.594 0s-3.091-4.198 18.674-9.206c31.283-7.187 32.226-19.079 31.856-19.831-.513-1.09-.71.194-1.739 1.377-.865.982-1.87.496-1.87.496-.984-.472-1.615.653-1.615.653s-1.265 1.965-2.385.847c-1.076-1.076-2.505 1.352-3.038 1.448-.64.113-.952-.198-1.81-.593-1.285-.567-2.664 1.774-3.37 1.94-1.081.246-1.841-1.275-2.77-.632-2.78 1.92-3.217 2.186-3.966 1.44-.553-.565-.634-1.178-2.492.6-1.58 1.515-2.337 1.798-2.971.835-.653-.97-.485-2.294-3.2.312-1.297 1.245-1.96 1.268-2.703.709-.56-.42-.555-2.424-2.503-.61-1.765 1.633-3.048 2.35-3.547.899-.552-1.63-2.632.3-3.113.754-.5.454-1.57 1.656-2.318.415-.749-1.247-2.544.615-3.612 1.797-.823.919-1.488.21-2.356-.372-.987-.677-3.942 3.447-4.21 3.694-.27.235-.476 0-1.153-.574-1.04-.882-3.846 4.019-4.3 4.338 0 0-.192.423-.957-.308-1.089-1.035-6.868 6.574-9.052 15.183-2.789 11.036 1.657 19.499 1.657 19.499s1.336.042 1.904-.862l.866-1.951c.7-1.627 1.852-1.116 1.852-1.116l-2.725 8.114c-.43 1.07-.171 2.58.782 4.01.896 1.436 1.515 2.407 2.235 3.074 2.213 2.084 1.987-.382 2.044-.689.258-1.32 1.72-.306 2.866.326 2.082 1.167 1.85-1.412 2.308-2.252.317-.604 1.34-.63 2.45.3.865.722 1.725-1.726 1.725-1.726 1.078-5.217-1.456-5.82-2.827-5.897l-2.776-.127s.183-.794.471-1.537l.125-.527c3.027-7.542-2.033-8.998-3.546-8.878-1.67.149-1.552-.914-1.552-.914s9.142-1.8 7.438 7.896c0 0-.337 1.69-.538 2.569l2.512.293c2.162.27 2.545 2.828 2.545 2.828s7.952 2.101 12.463 1.261c0 0 2.016-.48 2.576-1.734 0 0 2.922-6.883 11.45-7.172 0 0 .3.89-1.064 1.354-1.632.55-7.075.982-8.207 7.235v.025c-.123 1.026.151 3.21 2.377 4.222 1.896.854 2.564 4.307 2.957 5.24 1.105 2.647 2.758.116 2.758.116s1.047-2.135 1.946-.95c1.52 1.997 2.224.99 2.57-.282.376-1.374.927-1.973 2.516-.302.68.724 2.014.164 2.146-1.077.281-2.73 2.127-.558 2.39-.454.317.12 2.249-.315 1.167-3.394 0 0-1.46-2.934-8.045-4.202-1.545-.293-1.299-1.411-1.299-1.411l1.45.203c.432.07 4.262.497 4.67.56 16.062 1.586 28.248-3.862 28.615-4.252 12.476 2.391 29.443 1.576 32.627.428 3.2-1.128 3.437-2.997 3.07-3.497zM183.808 66.9c.258-.42.507-.658.733-.772.968-.55 1.587 1.172 1.469 1.236l-.038.013c-.002.002-.002.01-.003.011-.153.073-2.02.603-2.206.482-.368-.256.045-.97.045-.97zm-7.095.546s.24-.304.709-.46c.46-.167 1.155-.195 2.077.398 1.06.674 1.035 1.2 1.035 1.2-.036.018-.082.035-.136.055-.77.297-3.922.684-3.922.684-.613-1.13.237-1.877.237-1.877zM117.91 52.19c.53.408.022 2.76-.356 2.413l-2.723-1.44c.001 0 2.536-1.37 3.079-.973zm-4.428 1.5c.536.4.035 2.757-.345 2.406l-2.716-1.443s2.522-1.37 3.061-.962zm-1.533 4.6c.54.4.034 2.762-.35 2.42l-2.72-1.46s2.53-1.36 3.07-.96zm-2.59 6.173l-2.723-1.446s2.533-1.372 3.07-.968c.544.4.024 2.76-.348 2.414zm-.513 4.655l-2.715-1.445s2.527-1.367 3.066-.972c.538.4.036 2.75-.35 2.417zm-.05-13.788c.54.4.03 2.748-.349 2.413l-2.725-1.45c.002 0 2.538-1.37 3.074-.963zm-2.361 3.584c.533.4.029 2.748-.347 2.414l-2.72-1.446s2.53-1.374 3.067-.968zm-4.853 5.625s2.538-1.377 3.068-.97c.541.4.032 2.751-.349 2.41l-2.72-1.44zm2.083 5.89l-2.714-1.453s2.532-1.362 3.067-.96c.54.4.033 2.75-.353 2.412zm-1.934-9.883c.535.392.03 2.748-.35 2.408l-2.71-1.451s2.516-1.361 3.06-.957zm-2.447 4.743c.54.399.035 2.765-.354 2.416l-2.713-1.444s2.53-1.359 3.067-.972zm-3.574 5.618s2.531-1.36 3.067-.96c.543.397.026 2.756-.348 2.414l-2.719-1.454zm4.851 5.315l-2.716-1.447s2.532-1.372 3.07-.97c.537.404.023 2.753-.354 2.417zm3.896 3.156l-2.717-1.44s2.533-1.372 3.07-.973c.533.393.02 2.762-.353 2.413zm1.218-4.927l-2.72-1.453s2.534-1.36 3.07-.97c.54.403.03 2.754-.35 2.423zm3.614 7.054l-2.712-1.445s2.517-1.368 3.06-.968c.538.403.038 2.745-.348 2.413zm1.306-4.539l-2.714-1.445s2.527-1.36 3.062-.958c.537.395.037 2.75-.348 2.403zm.898-4.29l-2.714-1.448s2.526-1.36 3.07-.96c.538.403.024 2.747-.356 2.408zm3.82 8.28l-2.715-1.454s2.528-1.357 3.07-.964c.543.4.029 2.762-.355 2.419zm1.177-4.519l-2.715-1.442s2.532-1.376 3.07-.97c.529.39.02 2.75-.355 2.412zm.985-4.787l-2.716-1.447s2.529-1.356 3.07-.963c.535.403.026 2.752-.354 2.41zm3.814 8.46l-2.724-1.446s2.534-1.37 3.076-.971c.533.41.018 2.764-.352 2.417zm.913-4.835l-2.715-1.452s2.533-1.366 3.069-.968c.538.406.028 2.746-.354 2.42zm.947-4.963l-2.715-1.45s2.527-1.361 3.067-.965c.537.411.03 2.756-.352 2.415zm4.089 7.886l-2.72-1.433s2.532-1.37 3.062-.97c.547.397.037 2.747-.342 2.403zm.742-4.76l-2.722-1.44s2.53-1.366 3.064-.973c.552.404.035 2.766-.342 2.413zm.944-4.668l-2.724-1.438s2.535-1.375 3.07-.978c.536.406.029 2.764-.346 2.416zm4.16 8.422l-2.716-1.449s2.524-1.368 3.067-.968c.543.405.03 2.752-.35 2.417zm.742-4.446l-2.72-1.442s2.535-1.38 3.069-.969c.536.39.028 2.756-.349 2.41zm.895-4.742L132 66.56s2.533-1.38 3.075-.97c.537.403.034 2.75-.353 2.414zm3.766 9.271l-2.713-1.446s2.528-1.373 3.066-.963c.538.396.029 2.748-.353 2.409zm.896-4.772l-2.724-1.443s2.536-1.377 3.075-.97c.533.404.024 2.751-.351 2.413zm1.018-4.752l-2.72-1.443s2.533-1.377 3.072-.968c.543.399.028 2.755-.352 2.411zm3.748 9.524l-2.72-1.453s2.529-1.365 3.067-.955c.536.395.037 2.747-.347 2.408zm.87-4.508l-2.713-1.451s2.526-1.356 3.062-.969c.54.406.033 2.763-.348 2.42zm1.028-4.614l-2.71-1.444s2.528-1.365 3.067-.97c.531.4.023 2.755-.357 2.414zm3.425 9.804l-2.718-1.462s2.531-1.353 3.07-.951c.542.393.035 2.749-.352 2.413zm.961-4.372l-2.717-1.442s2.535-1.366 3.069-.968c.544.409.018 2.757-.352 2.41zm1.039-4.467l-2.724-1.439s2.533-1.369 3.075-.978c.533.4.018 2.75-.351 2.417zm4.236 5.41l-2.715-1.432s2.527-1.372 3.07-.979c.534.406.026 2.756-.355 2.41z"/></svg>