<svg xmlns="http://www.w3.org/2000/svg" width="110" height="110" viewBox="0 0 110 110"><path fill="#FFF" d="M55 4.375c27.61 0 50 22.39 50 50s-22.39 50-50 50-50-22.39-50-50 22.39-50 50-50zm32.95 52.78v-8.91h-7.62v-7.62h-8.91v7.62H63.8v8.91h7.62v7.62h8.91v-7.62h7.62zm-30.85 6.33v-35.82H35.53l-.22 9.68h11.27v26.14h-.23v.069c0 1.83-.68 3.511-1.98 4.801-1.29 1.3-2.97 2.06-4.8 2.06-1.83 0-3.58-.76-4.87-2.06-1.3-1.29-1.99-2.971-1.99-4.801v-.069H22.05v.069c0 9.681 7.85 17.53 17.52 17.53 9.6 0 17.45-7.85 17.45-17.53v-.069h.08z"/><path d="M80.33 59v5.775h-8.91v-24.15h8.91v5.437z"/><path d="M69.812 57.155H63.8v-8.91h24.15v8.91H81.5zM57.1 27.665v35.82h-.08v.069c0 9.681-7.85 17.53-17.45 17.53-9.67 0-17.52-7.85-17.52-17.53v-.069h10.66v.069c0 1.83.69 3.511 1.99 4.801 1.29 1.3 3.04 2.06 4.87 2.06s3.51-.76 4.8-2.06c1.3-1.29 1.98-2.971 1.98-4.801v-.069h.23v-26.14H35.31l.22-9.68H57.1z"/></svg>