<svg xmlns="http://www.w3.org/2000/svg" width="342.371" height="342.371" version="1"><defs><clipPath id="a"><path d="M0 2834.65V0h2834.65v2834.65H0z"/></clipPath></defs><g clip-path="url(#a)" transform="matrix(.12078 0 0 -.12078 0 342.371)"><path d="M0 0h2834.65v2834.65H0V0z" fill="#fff"/><path d="M92.723 918.781h2649.2v1823.14H92.723V918.781z" fill="#231f20"/><path d="M2739.62 95.559l-1.08 700.363h-118.75c-12.36-16.492-4-90.75-41.61-104.934-127.26 28.543-11.29 43.012-54.96 104.934-5.46-.301-57.37.039-62.86 0 5.94-.801 28.11-25.692-5.11-54.231-44.58-293.55 37.36-413.203-4.08-645.953l288.45-.18M845.094 579.039c47.66 22.473 48.008 72.242 50.218 104.891-14.433 16.191-70.937 17.199-93.578 13.07-31.367-26.262-4.132-73.141-22.863-103.621 12.356-26.367 45.504-7.91 66.223-14.34M1117.34 231.559l14.12-4.047c12.94-2.614 30.43-3.172 43.97 2.527-3.55 9.391-8.33 18.281-14.1 25.481-15.45-7.379-30.18-15.211-43.99-23.961" fill="#c81750"/><path d="M1121.06 548.422c-28.75 76.328 75.1 107.43 115.13 154.019l53.73-29.953c-5.84-52.136-101.05-61.758-95.25-118.258 9.95-8.421 18.62-22.621 31.55-25.351 4.51-14.039-7.24-22.598-15.76-31.117-41.78-16.852-63.28 24.058-89.4 50.66zm54.37-318.383c11.3-28.199 12.64-63.051-.88-85.078l-139.03-4.852v17.801c24.41 32.11 51.41 54.828 81.82 73.649l-27.91 7.871c-39.72 27.14 53.71 66.07 68.2 76.691l37.56-60.133c-1.13-13.558-9.21-21.468-19.76-25.949zM898.922 163.23c-29.918 51.68 4.933 137.821 13.211 187.129 7.055 7.02 14.328 16.582 26.461 12.813 8.336-27.024-31.324-44.613-4.801-67.953 27.437 8.109 63.477-16.571 90.997 4.57-14.38 23.473-44.345 11.652-64.688 21.16v12.821l61.318 3.71c9.54-13.019 52.92-25.289 43.34-50.082-40.83-57.628-110.651-91.25-165.838-124.168zm-48.293 291.481c6.344 10.59 18.883 4.328 27.949 6.019 3.297-25.871 43.645 6.141 28.086-27.652h-4.539c-17.098-8.93-45.152 0-51.496 21.633zm79.531-15.223c20.797 12.09 49.711 10.192 44.914-29.808h-33.621c-6.469 8.058-16.183 16.07-11.293 29.808zm25.25 281.453c5.82 9.399 14.34 27.168 31.199 21.348-1.414-14.098-8.535-40.148-31.199-29.48v8.132zm39.512-315.3c32.338-7.071 67.298 17.539 91.038-8.219-10.67-22.473-10.67-59.942-47.93-38.762-16.61 12.961-53.999 7.11-51.421 38.762l8.313 8.219zm3.558 294.179c2.43 26.961 34.8 16.391 52.79 24.692l3.66-11.703c-16.9-12.989-28.9-41.27-56.45-30.59v17.601zm96.02-204.808c-20.49-14.102-55.08-9.274-78.06-4.563 5.97 9.242 7.36 20.051 8.35 30.481 14.63 11.832 30.14 37.629 56.54 29.461 10.75-15.18 15.57-34.172 13.17-55.379zm-.59 213.808l-5.82-73.531c-2.91-11.559-11.72-34.5-32.4-25.84-25.04-5.91-11.91 24.571-14.76 35.832 22.09 18.789 28.08 59.297 52.98 63.539zM860.453 490.449h-17.91c-25.207 9.242-80.488 22.211-82.758 51.539 34.856-9.226 65.922-26.816 100.668-38.66v-12.879zm433.177-76.488c-33.54-1.18-62.44-49.57-91.19-29.481 16.85 47.122 53.93 85.79 69.62 131.739 27.58 62.551 72.56 198.953 53.35 280.172h-128.75c-41.93-11.84-10.89-120.2-54.26-127.34-11.9 29.629-8.39 64.949-42.45 126.57h-69.55c5.29-46.441-1.85-48.68-5.61-53.332-23.88-1.269-21.5 36.332-51.536 16.359-26.324 4.75-33.445-37.707-61.121-29.488-9.422 22.488-35.945 51.719-64.832 34.238 25.16-54.289 151.179-76.609 91.293-165.886-12.133-25.934-2.461-63.492-34.739-76.582-56.554 15.332-109.214 36.519-165.64 50.648 6.039-21.187-9.606-50.648-3.68-71.887 60.106-8.07 78.106-70.519 129.527-89.339 10.934-8.25 15.688-17.582 13.415-30.614-36.149-15.347-74.551 16.5-108.059 30.614-8.445-3.43-3.832-11.782-4.891-17.582 31.153-36.622 131.953-21.149 99.535-97.551-27.582-62.508-21.519-166.028-116.234-174.43-8.551-18.75 14.227-17.348 21.59-25.719 81.41-8.25 165.566 69.532 233.872 4.72 22.74 0 51.64 14.312 69.66-4.231h204.58c38.55 74.492 8.76 122.152 12.39 190.461 4.53 17.308-47.85 34.929-87.48 25.421-7.1 4.778-2.45 14.231-3.49 22.329 26.31 30.621 131.89-15.211 107.9 59 0 5.8 0 20.011-13.22 21.191M293.863 720.41c-128.277 8.238-197.047-4.922-198.781-4.43V614.328h23.965c28.887-8.637 48.531-9.226 77.547-9.226 107.586-10.973 198.191 4.808 304.976 10.628-12.066 3.579-24.246 6.508-35.261 5.79-18.125 13.691-29.551 22.57-25.27 44.261 28.301 30.18 80.156 5.239 113.363 23.219 29.348-11.281 9.762-43.262 16.731-63.07-2.895-5.578-6.121-5.102-9.535-8.18 32.683.23 67.519-.809 105.074-4.25v105.301c-158.774 10.187-270.797-4.582-372.809 1.609M1486.66 509.02c-23.09-5.93-52.52-10.579-73.53 3.289 10.59 23.722 36.17 9.589 53.93 13.211 6.15-8.321 18.85 1.128 19.6-16.5zm76.18-250.25v-31c-41.23-14.258-79.46-59.211-124.52-39.411v28.121c18.04 8.418 38.95-16.941 54.14 22.54 24.7-2.95 44.94 33.531 70.38 19.75zm-35.14 422.82l-19.47-21.789c-7.61 0-21.3 23.289-23.5 32.668 6.08 7.043 39.87-2.66 42.97-10.879zm1.67-50.391c9.59-7.058 29.9-7.617 19.39-34.07-12-10.75-20.99 17.199-32.25 20.621l12.86 13.449zm23.03-286.23v-35.957c-11.55 1.91-26.87-5.973-35.55 5.988 2.35 27.789 24 25.871 35.55 29.969zm13.02 93.922h-66.84v24.621h66.84v-24.621zM1603 136.449c-15.82-36.969-45.05-10.07-65.25 0-16.67 6.75-30.04-42.07-45.7-6.73-.76 8.48 3.77 11.84 5.28 18.562 36.69 25.258 74.85 4.938 105.67-11.832zm-200.25 146.602v12.84h45.79v-12.84h-45.79zm78.29 301.679c-14.32-11.179-34.28-16.351-50.78-18.242l-9.98 33.114c18.96 1.636 53.57 11.019 60.76-14.872zm-56.59 51.391h35.18V623.32h-35.18v12.801zm216.3-27.012v-39.668c-18.45 2.137-40.73-6.07-56.79 6.36 7.98 28.801 38.34 27 56.79 33.308zM1497.33 756.02c51.64-12.829 105.92-18.989 160.79-21.239v61.18h-229.67c-.28-48.441-37.03-116.289-37.03-116.289 20.15.187 39.76-1.184 57.53-9.633v-12.84c-18.76 4.629-37.97 7.039-57.53 8.172V466.672h25.35c1.48-4.703 5.99-7.211 5-12.953l-5-9.489h-25.35v-24.191c8.52-.461 17.65-2.777 25.35-.57.44-1.09.87-2.207 1.65-3.199 11.94-2.211 20.37-18.032 35.21-9.719v-12.789h-26.71c-5.15 0-11.62 1.457-15.64 6.226-6.26-2.488-13.03-3.539-19.86-2.566v-18.274c20.15 7.473 46.5-1.027 65.86-1.949 2.22-4.808 6.72-7.211 5.23-13.09l-5.23-9.3c-20.12 7.3-44.93 3.429-65.86 5.562v-153.75c7.23-1.351 14.47-3.422 20.15-4.781 2.13-5.84 8.19-9.36 8.19-16.34-7.79-4.711-18.05-5.828-28.34-3.82V95.738h266.7v85.942c-10.23-2.008-35.56-3.16-43.38 1.441 0 7.129 26.59 61.039 33.91 62.399l9.47 114.851c-20.98-2.133-45.57 1.738-65.75-5.562l-5.19 9.3c-1.4 5.879 3.09 8.282 5.19 13.09 19.52.922 45.86 9.422 65.75 1.949v18.274c-10.98-1.352-22.57 1.547-30.42 9.129-.8 6.008 3.72 8.32 5.29 12.918 7.64-2.207 16.7.109 25.13.57v24.191h-25.13l-5.29 9.489c-.8 5.742 3.72 8.25 5.29 12.953h25.13v198.699c-19.37-1.133-38.87-3.543-57.44-8.172v12.84c17.79 8.449 37.55 9.82 57.44 9.633v39.129c-47.44 2.621-94.52 7.578-139.14 11.32-11.27 6-27.69 4.66-35.34 16.508 3.02 8.172 8.41 9.391 13.69 9.391M315.219 752.781c113.297 0 237.785 10.297 352.668 1.449v43.161H93.934c-.602-17.922 0-45.993 0-45.993 71.824 11.852 161.101 1.383 221.285 1.383M227.125 544.43c-32.152 0-67.074 31.371-99.289 41.781h-16.074l-16.137-3.539-.719-486.934h573.711v492.543c-149.707 17.25-280.254-55.242-441.492-43.851M2305.23 474.879c-13.08 1.211-42.62 4.062-45.1 22.883-3.03 20.5-4.19 49.008 41.33 40.668 33.85-8.75 47.38-55.571 3.77-63.551zm-81.19-255.719c-14.27-16.051-10.25-88.031-44.81-50.711-36.86 96.922 13.03 163.653 21.37 249.781 21.49 23.489 45.21 32.161 58.7 26.192 3.31-.711 21.34-43.891 24.35-44.512 4.08-59.289-31.85-62.219 2.81-160.48-9.37-16.071-51.54-7.871-62.42-20.27zm-85.7 314.012c7.2 9.527 32.46 22.898 45.85 20.598 14.33-5.872 23.94-33.04 18.01-51.879-1.28-15.262-18.01-11.672-30.07-11.672-16.85 5.883-38.64 23-33.79 42.953zm-48.62 36.918c-4.98-20.051-29.94-43.442-61.12-37.52-15.67 11.86-10.44 34.321-14.06 50.739 3.62 11.761 38.17 21.132 52.68 17.543 5.96-8.192 27.16-19 22.5-30.762zm-70.38 98.961c7.12-28.34-31.77-33.379-46.42-34.942-16.27 8.661-36.92 40.34-26.07 66.891 10.9 10.809 19.92 24.852 39.86 19.41 10.64-17.539 41.58-26.441 32.63-51.359zm-79.98-472.313v43.703l-33.07 31.239-13.92 46.879c-16.21 71.632 2.35 154.793 15.26 181.781-.58-.488-.7-.649-1.24-.871-12.04 3.621-31.22-7.028-38.48 8.133 10.88 17.777-4.65 44.91 13.31 60.027 13.13 2.461 45.74 1.812 54.13-7.57-.87-14.61-1.46-35.379-14.72-50.008 13.77 2.859 28.89.449 39.65-10.36-3.45-137.062 9.78-229.73 20.96-355.441l-41.88 52.488zm-130.05 452.59c-23.08 19.723-37.32 42.453-31.57 73.461 14.48 33.941 63.22 22.633 83.41 8.43 15.48-22.649 43.25-49.528.66-61.41 4.23-54.7-35.51-46.079-52.5-20.481zm575.76-226.148c-33.53 81.32 42.94 351.98-80.67 374.211-13.51 1.949-24.91-3.743-35.61-12.653 21.58-15.41 37.92-38.41 41.56-64.566-28.86-63.551-88.73 14.129-129.56-7.121V661.34c-16.9-14.059-28.91-32.93-52.74-25.828-14.51 16.488-33.72 28.168-26.59 51.566 14.65 30.633 48.07 18.871 69.69 33.094-.54.769-.94 1.476-1.33 2.219-41.03 10.007-35.64 74-105.01 74h-132.44c-61.51-18.95-137.2-54.102-208.07-.43l13.38-87.332 8.77-29.828-.24-26.082 31.22-27.168-32.48-27.75 11.05-67.18c24.49-7.293 50.87-8.48 52.05-30.93-4.49-36.66-31.99-78.703-33-116.613-1.63-46.93 24.44-240.566 23.7-287.34 25.31 2.313 146.44 7.211 171.2 19.813.11-.942 33.72-18.813 33.72-19.813 43.02-4.16 99.27-14.84 85.25 59.801L2057.8 353.98c-36.95 101.61 31.12 126.93 53.87 128.098l17.91-16.316c-6.3-20.16-9.62-39.532-11.37-58.282 4.51-7.57 8.21-15.609 5.78-28.332 1.5-11.949-1.68-18.988-6.17-23.828 7.15-92.109 51.18-172.289 52-260.25l116 .668 42.21 32.871-8.84 81.692 4.89 77.051-2.63 143.429c17.81-4.121 35.36-9.121 55.3-16.82l8.32 9.219" fill="#c81750"/><path d="M719.281 1393.21c14.293 0 51.449-3.34 77.16.95 80.539 13.42 122.071 39.59 122.071 97.1 0 57.51-36.418 77.98-147.219 77.98H669.332V1244c7.938.47 16.465 1.19 24.969 1.19 7.949 0 15.898-.72 24.98-1.19v149.21zm0 157.47c17.149.94 57.731 1.43 82.305-.48 45.152-3.33 64.59-29 64.59-61.32 0-42.3-33.153-72.25-90.309-77-19.429-1.42-42.293-1.42-56.586 0v138.8M1076.44 1383.51l-9.22-3.59c-20.91-8.19-20.3-7.17-58.4-15.37-44.875-9.74-90.984-15.36-93.437-66.6-1.235-32.27 32.57-56.86 70.691-58.91 37.496-2.04 74.996 14.35 87.286 45.59v-39.44h75.01v8.7h-25.82v142.94c0 37.91-6.76 73.25-87.91 76.84-22.14 1.02-27.67-1.02-43.656-3.08-18.445-2.55-35.648-8.19-47.941-12.8v-68.65h11.062l13.528 28.68c11.679 24.6 22.133 51.24 62.087 47.66 39.96-3.59 46.72-25.62 46.72-49.18v-32.79zm0-32.28c0-13.32.61-21.51-1.23-34.84-4.3-29.7-27.67-62.5-66.39-64.55-32.586-2.04-47.961 23.57-45.496 47.15 5.528 52.75 25.824 46.09 88.526 65.56l24.59 7.68v-21M1288.78 1245.19h-111.27v8.7h27.67v204.92h-28.9v9.23h71.93v-46.63c3.08 16.92 28.89 48.16 69.47 48.16 11.67 0 22.14-2.56 33.8-7.68v-80.95h-11.66l-14.77 37.4c-10.45 26.13-18.43 43.04-34.42 35.35-41.8-19.98-38.12-68.14-38.12-113.21v-86.59h36.27v-8.7M1459.94 1519.78c0-14.35-14.14-24.59-30.12-24.59-15.37 0-29.51 11.27-29.51 24.07 0 12.81 13.53 25.11 28.9 25.11 16.59 0 30.73-11.28 30.73-24.59zm-77.45-274.59v8.7h28.27v204.92h-26.44v9.23h74.38v-214.15h25.22v-8.7h-101.43M1667.36 1415.78c-11.68 34.84-23.35 48.67-55.32 48.67-27.66 0-62.7-9.22-65.16-37.41-1.85-25.09 29.51-35.34 57.78-43.02 47.95-13.84 103.89-28.18 102.06-72.75-1.24-42.52-43.65-73.77-101.44-72.74-33.19.51-70.7 11.27-83.6 18.95v73.26h11.06l12.9-36.88c14.15-41.5 30.13-42.02 55.34-44.06 35.03-3.08 75 11.26 78.07 39.96 4.3 35.33-52.25 44.56-87.91 55.32-25.2 7.69-74.39 21.51-74.39 63.53 0 49.18 63.93 65.57 97.75 65.57 28.27 0 60.86-9.22 72.54-15.37v-67.11h-11.68l-8 24.08" fill="#b0afaf"/><path d="M1965.61 1573.73h-299.53l1.89-11.36.97-7.2-1.05-7.83-1.93-11.5 5.74.71c28.19 2.48 63.27 5.53 120.2 5.68v-303.75l29.41.85 29.32-.85.1 4.57v299.11c39.46-.14 77.97-1.95 114.44-5.6l5.54-.54-1.09 8.56-.93 10.59.8 9.37 1.14 9.24-5.02-.05M1985.63 1415.53c3.84 21.88 21.14 44.54 46.82 45.51 10.56.5 19.31-2.44 26.07-8.71 9.01-8.4 14.42-22.89 14.84-39.73 0-.01.3-12.56.49-19.53h-92.2c1.22 6.86 3.98 22.46 3.98 22.46zm129.32-82.91l-.99-10.14c-2.99-29.77-27.17-70.63-71.6-68.25-42.58 2.01-61.58 32.4-61.58 98.54v21.69h153.21l.46 3.92c.36 3.13.55 6.28.55 9.42 0 21.21-8.25 42.33-23.35 59.15-19.12 21.33-46.45 32.94-76.93 32.69-62.27-1.01-110.36-51.67-114.44-120.46-1.86-34.28 9.54-66.07 32.11-89.53 22.24-23.11 52.82-35.56 86.12-35.04 50.53.98 91.78 37.96 95.95 86.01 0 .02 1.01 12 1.01 12h-20.52M2279.56 1481.18c-79.49-2.83-122.35-65.37-122.35-122.78 0-59.93 42.34-122.25 113.2-122.77 37.69-.45 84.84 13.17 95.41 80.59l2.69 16.4h-19.98l-3.74-20.03c-5.18-26.27-24.36-56.82-61.36-56.31-57.02.46-63.18 51.44-64.47 99.17-.79 30.48 2.78 71.34 24.1 92.83 10.02 10.11 23.35 15.08 39.61 14.8 25.21-.45 40.24-17.81 53.62-61.91l7.2-21.59h19.3v85.07l-2.48 1.22c-28.07 13.73-59.41 15.9-80.75 15.31M2386.15 1551.88v-18.1h27.66v-275.46h-25.82v-17.57h116.45v17.57h-35.04v92.91c0 67.98 17.71 101.55 54.11 102.63 9.69.29 16.69-1.79 21.36-6.33 8.88-8.63 9.1-25.55 9.1-43.65v-145.56h-32.56v-17.57h113.98v17.57h-27.05v145.16c0 49.17-19.27 68.84-71.11 72.57-28.12 2.16-54.1-13.22-67.83-29.56v105.39h-83.25M487.543 1965.07H383.547v-297.06c0-13.39-11.035-23.64-23.641-23.64h-11.043c-13.379 0-23.629 10.25-23.629 23.64v297.06H222.012c-13.399 0-24.422 8.66-24.422 22.05v8.67c0 13.4 11.023 22.06 23.625 22.06h265.547c13.394 0 24.429-8.66 24.429-22.06v-8.67c0-13.39-11.035-22.05-23.648-22.05M823.992 1644.37H581.305c-12.594 0-22.063 9.46-22.063 22.07v329.35c0 13.4 10.25 22.06 22.848 22.06h230.871c13.394 0 23.637-8.66 23.637-22.06v-8.67c0-13.39-10.243-22.05-23.637-22.05H617.555v-108.74h179.652c13.391 0 23.637-8.67 23.637-22.06v-8.67c0-13.39-10.246-22.06-23.637-22.06H617.555v-106.38h206.437c13.403 0 23.629-8.66 23.629-22.05v-8.67c0-13.4-10.226-22.07-23.629-22.07M1152.55 1644.37H907.504v349.84c0 13.4 10.25 23.64 23.629 23.64h11.047c12.601 0 23.636-10.24 23.636-23.64v-297.05h186.734c13.4 0 23.64-8.66 23.64-22.05v-8.67c0-13.4-10.24-22.07-23.64-22.07M1479.54 1644.37h-242.7c-12.59 0-22.05 9.46-22.05 22.07v329.35c0 13.4 10.24 22.06 22.85 22.06h230.87c13.38 0 23.65-8.66 23.65-22.06v-8.67c0-13.39-10.27-22.05-23.65-22.05h-195.4v-108.74h179.64c13.39 0 23.64-8.67 23.64-22.06v-8.67c0-13.39-10.25-22.06-23.64-22.06h-179.64v-106.38h206.43c13.4 0 23.63-8.66 23.63-22.05v-8.67c0-13.4-10.23-22.07-23.63-22.07M1804.15 1644.37h-154.43c-48.85 0-86.67 41.76-86.67 89.83v196.2c0 48.06 40.97 87.45 89.83 87.45h141.83c13.39 0 23.63-8.66 23.63-22.06v-8.67c0-13.39-10.24-22.05-23.63-22.05h-121.35c-37.82 0-52-22.07-52-51.22v-167.83c0-37.03 23.63-48.86 52.78-48.86h130.01c13.4 0 23.65-8.66 23.65-22.05v-8.67c0-13.4-10.25-22.07-23.65-22.07M2128.77 1921.73c0 23.64-19.7 43.34-43.34 43.34h-100.06c-24.43 0-43.34-19.7-43.34-43.34V1740.5c0-24.42 18.91-43.34 42.55-43.34h100.85c23.64 0 43.34 18.92 43.34 43.34v181.23zm-29.15-277.36h-128.44c-48.85 0-87.45 40.19-87.45 88.25v198.56c0 48.07 41.75 86.67 90.61 86.67h122.12c48.86 0 90.62-38.6 90.62-86.67v-198.56c0-48.06-39.39-88.25-87.46-88.25M2584.2 1644.37h-11.04c-12.6 0-23.63 10.25-23.63 23.64V1917l-78.8-110.31c-7.08-9.46-13.39-17.33-25.2-17.33h-7.89c-11.82 0-18.12 7.87-25.21 17.33L2333.64 1917v-248.99c0-13.39-11.03-23.64-23.65-23.64h-11.03c-13.39 0-23.63 10.25-23.63 23.64v327.78c0 12.61 8.67 22.06 22.06 22.06h14.18c10.25 0 18.91-9.45 24.43-17.33l105.58-148.92 106.38 148.92c5.52 7.88 13.39 17.33 23.63 17.33h14.18c13.4 0 22.06-9.45 22.06-22.06v-327.78c0-13.39-10.23-23.64-23.63-23.64" fill="#fff"/></g></svg>